<svg width="18" height="13" viewBox="0 0 18 13" fill="none" xmlns="http://www.w3.org/2000/svg">
<path d="M16.7861 2.78123C16.6976 2.42779 16.5175 2.10396 16.2638 1.84244C16.0101 1.58092 15.6919 1.39097 15.3413 1.29179C14.0604 0.979004 8.93674 0.979004 8.93674 0.979004C8.93674 0.979004 3.81306 0.979004 2.53214 1.32158C2.18156 1.42076 1.86336 1.61071 1.60969 1.87223C1.35601 2.13375 1.17585 2.45758 1.08738 2.81102C0.852955 4.11097 0.738284 5.42969 0.74481 6.75059C0.736454 8.08144 0.851133 9.41021 1.08738 10.72C1.18491 11.0624 1.36912 11.3739 1.6222 11.6244C1.87528 11.8749 2.18869 12.0558 2.53214 12.1498C3.81306 12.4924 8.93674 12.4924 8.93674 12.4924C8.93674 12.4924 14.0604 12.4924 15.3413 12.1498C15.6919 12.0506 16.0101 11.8607 16.2638 11.5992C16.5175 11.3376 16.6976 11.0138 16.7861 10.6604C17.0187 9.37021 17.1334 8.06155 17.1287 6.75059C17.137 5.41974 17.0224 4.09097 16.7861 2.78123V2.78123Z" stroke="white" stroke-width="0.714932" stroke-linecap="round" stroke-linejoin="round"/>
</svg>
