<svg width="56" height="57" viewBox="0 0 56 57" fill="none" xmlns="http://www.w3.org/2000/svg">
<g filter="url(#filter0_d_34_694)">
<rect x="2.91675" y="0.91687" width="50" height="50" rx="10" fill="#C4C4C4" fill-opacity="0.1"/>
<g clip-path="url(#clip0_34_694)">
<path d="M30.4741 29.45V15.375C30.4741 14.5462 30.1642 13.7513 29.6125 13.1653C29.0608 12.5792 28.3125 12.25 27.5323 12.25C26.7521 12.25 26.0038 12.5792 25.4521 13.1653C24.9004 13.7513 24.5905 14.5462 24.5905 15.375V29.45C23.6459 30.1204 22.9294 31.0958 22.5466 32.232C22.1639 33.3682 22.1353 34.6051 22.4651 35.7599C22.7948 36.9147 23.4655 37.9262 24.3779 38.6451C25.2904 39.364 26.3963 39.7521 27.5323 39.7521C28.6683 39.7521 29.7743 39.364 30.6867 38.6451C31.5992 37.9262 32.2698 36.9147 32.5996 35.7599C32.9293 34.6051 32.9007 33.3682 32.518 32.232C32.1353 31.0958 31.4187 30.1204 30.4741 29.45Z" stroke="white" stroke-width="2.99376" stroke-linecap="round" stroke-linejoin="round"/>
</g>
</g>
<defs>
<filter id="filter0_d_34_694" x="0.122569" y="0.91687" width="55.5884" height="55.5884" filterUnits="userSpaceOnUse" color-interpolation-filters="sRGB">
<feFlood flood-opacity="0" result="BackgroundImageFix"/>
<feColorMatrix in="SourceAlpha" type="matrix" values="0 0 0 0 0 0 0 0 0 0 0 0 0 0 0 0 0 0 127 0" result="hardAlpha"/>
<feOffset dy="2.79418"/>
<feGaussianBlur stdDeviation="1.39709"/>
<feComposite in2="hardAlpha" operator="out"/>
<feColorMatrix type="matrix" values="0 0 0 0 0 0 0 0 0 0 0 0 0 0 0 0 0 0 0.1 0"/>
<feBlend mode="normal" in2="BackgroundImageFix" result="effect1_dropShadow_34_694"/>
<feBlend mode="normal" in="SourceGraphic" in2="effect1_dropShadow_34_694" result="shape"/>
</filter>
<clipPath id="clip0_34_694">
<rect width="28.2414" height="30" fill="white" transform="translate(14 11)"/>
</clipPath>
</defs>
</svg>
